<?xml version="1.0" encoding="UTF-8"?>
<svg xmlns="http://www.w3.org/2000/svg" viewBox="0 0 400 400">
  <defs>
    <style>
      .cls-1 {
        fill: #e5221e;
      }

      .cls-2, .cls-3, .cls-4, .cls-5 {
        fill: #fff;
      }

      .cls-6 {
        stroke: #070707;
      }

      .cls-6, .cls-7, .cls-8, .cls-9, .cls-10, .cls-11, .cls-12, .cls-13, .cls-14, .cls-3, .cls-15, .cls-4, .cls-16, .cls-17, .cls-18, .cls-19, .cls-20, .cls-21 {
        stroke-miterlimit: 10;
      }

      .cls-6, .cls-7, .cls-8, .cls-10, .cls-13, .cls-14, .cls-18, .cls-21 {
        fill: none;
      }

      .cls-6, .cls-7, .cls-11, .cls-15, .cls-4, .cls-16, .cls-18, .cls-19 {
        stroke-width: .25px;
      }

      .cls-22 {
        fill: #36a9e1;
      }

      .cls-7, .cls-10, .cls-15 {
        stroke: #0c0c0c;
      }

      .cls-8, .cls-12, .cls-5, .cls-20, .cls-21 {
        stroke: #000;
      }

      .cls-23 {
        fill: #d8d2d3;
      }

      .cls-9 {
        fill: #fae500;
      }

      .cls-9, .cls-11, .cls-13, .cls-14, .cls-4, .cls-16, .cls-18 {
        stroke: #050505;
      }

      .cls-9, .cls-13, .cls-3, .cls-17, .cls-21 {
        stroke-width: .5px;
      }

      .cls-11, .cls-24 {
        fill: #9eb8da;
      }

      .cls-3, .cls-17 {
        stroke: #020202;
      }

      .cls-25 {
        fill: #4476b2;
      }

      .cls-15 {
        fill: #a7bcd9;
      }

      .cls-26 {
        fill: #817674;
      }

      .cls-16, .cls-19 {
        fill: #ff3b00;
      }

      .cls-17, .cls-27 {
        fill: #f7f7f7;
      }

      .cls-28 {
        fill: #f4b69f;
      }

      .cls-29 {
        fill: #fecb3f;
      }

      .cls-19 {
        stroke: #fffb00;
      }

      .cls-30 {
        fill: #474744;
      }

      .cls-31 {
        fill: #260f07;
      }

      .cls-32 {
        fill: #070707;
      }

      .cls-5 {
        font-family: THEAMAZINGSPIDER-MAN, 'THE AMAZING SPIDER-MAN';
        font-size: 49.9px;
      }

      .cls-20 {
        fill: #33332e;
      }

      .cls-33 {
        fill: #bcd1ea;
      }
    </style>
  </defs>
  <g id="Fondo">
    <path d="m270.71,315.41c0,.29,3.82,5.77,9.88,5.18s10.96-4.11,10.96-4.11l-4.21-7.04"/>
    <line x1="212.43" y1="320.64" x2="237.75" y2="305.34"/>
  </g>
  <g id="Capa_8" data-name="Capa 8">
    <circle class="cls-25" cx="198.82" cy="202.78" r="182.48"/>
    <polyline class="cls-25" points="214.87 325.16 238.26 309.45 270.57 323.26"/>
  </g>
  <g id="Cohete">
    <path class="cls-30" d="m205.48,282.35l35.52,11.27,15.62-.74,12.33-3.62,15.33-8.14,3.44,1.92,2.56,2.08s2.1,1.83,2.23,1.95,5.21,5.3,5.21,5.3l7.63,8.59,9.15,10.92,3.46,4.25,6.79,8.48,5.24,6.84s-46.87,45.04-102.2,52.09-62.36.49-81.79-4.16l-.5-6.31,1.75-12.68s1.25-3.29,1.31-3.46,3.92-9.39,3.92-9.39l6.65-11.82,9.14-13,7-8.65,7.46-8.42,11.52-11.83,10.01-9.74"/>
    <path class="cls-14" d="m291.54,329.23s15.65,15.26,13.89,29.93"/>
    <path class="cls-24" d="m52.32,122.73l1.38-1.24,2.31-2.34,2.19-1.83,2.13-1.81,1.47-.94,2.54-1.46.72-.2-1.08-.45-3.17-1.02-2.8-.7s-1.71-.36-1.8-.37-2.8-.58-2.8-.58l-1.73-.2-1.08.26-.06,2.51.14,1.55.73,2.82.82,4.4.08,1.61Z"/>
    <polyline class="cls-24" points="60.15 122.23 61.29 121.53 62.29 120.94 62.91 120.67 63.9 121.11 68.04 122.93 68.7 124.81 69.82 128.17 70.63 130.61 69.37 131.66 66.23 129.91 64.05 128.74 62.28 127.66 61.59 125.64 60.15 122.23"/>
    <path class="cls-22" d="m90.42,165.44l1.94-.94,1.87-1.1,2.84-2.07,1.35-1.07,2.56-2.21,1.03-1.36,1.71-2.56.26-.51-2.81-3.03-4.03-4.36-5.66-6.1-12.88-13.8s-9.93-10.4-9.93-10.45-2.42-2.38-2.42-2.38l-1.35-.79-.99.3-3.35,1.96-3.67,3.05-2,1.78-2.66,2.62.56,1.42,1.95,2.72,3.31,4.03,2.74,3.17,6.64,7.38,6.74,7.28,6.9,7.33,7.74,8.11,1.56,1.61Z"/>
    <polygon class="cls-15" points="69.37 131.66 69.87 131.3 70.63 130.68 70.56 130.34 70.11 129.16 69.49 127.31 67.99 122.93 65.63 121.89 63.3 120.84 62.77 120.61 61.5 121.41 60.15 122.23 60.66 123.51 61.71 126 62.4 127.78 63.16 128.2 65.06 129.27 69.37 131.66"/>
    <path class="cls-11" d="m78.06,141.24l1.13.02.8-.37-.51-.47-1.02-1.17-1.56-1.69s-1.49-1.65-1.53-1.66-2.07-2.18-2.07-2.18l-2.74-3-1.12.94.36.59.67.71.78.99,1.16,1.37,1.51,1.83,1.7,1.86,1.16,1.21,1.15.96.11.05Z"/>
    <path class="cls-26" d="m91.63,164.83l.72.39,1.19.34,1.53.46,1.69.46.48-.38,1.75-1.69,1.44-1.42.76-.9.62-.93,1.39-2.07s1.34-2.1,1.34-2.1l.04-1.14-.07-.42-.96-.92-.54.8-1.75,2.14-2.16,2.2-1.6,1.28-2.07,1.61-2.62,1.61-1.17.68Z"/>
    <polygon class="cls-33" points="102.3 151.79 105.95 151.47 105.3 150.04 107.5 150.42 109.22 147.94 111.21 145.13 108.52 145.32 103.2 145.66 98.97 145.92 97.03 146.04 102.3 151.79"/>
    <polyline class="cls-33" points="83.38 158.24 82.92 162.99 82.46 167.81 82.17 170.84 81.95 173.19 81.88 173.57 83.71 172.28 85.76 170.88 87.63 169.49 87.25 167.34 88.78 167.96 89.28 164.34 87.08 161.97 83.41 158.21"/>
    <path class="cls-16" d="m114.71,176.64l-.78-3.99-.58-3.24-.22-1.82s-.21-1.71-.2-1.73-.64-1.69-.64-1.69l-1.13-2.16-.94-1.43-1.2-.77-1.32-.54-2.68-1.05.58,2.46.32,1.35.21,1.35.22,1.28.28,1.38.21.83.28.85.17.24-.38.03-1.64-.07-2.46-.19-2-.13-.84-.1s-1.32-.31-1.34-.31-1.57-.17-1.57-.17l.4.92,1.48,2.77,1.18,1.88,1.62,1.74,1.33.79,1.78.38,3.76.5,3.15.41,2.92.24Z"/>
    <path class="cls-6" d="m114.94,176.97s-1.66-8.18-1.8-10.27-2.28-5.9-3.61-6.58-4.32-1.63-4.32-1.63l.71,2.76h-2.58s.1,3.24.1,3.24l-3.66.03s.31,1.72.43,2.58c.02.13.03.24.04.32.01.1-.01.04-.02.03-.08-.08-2.99-.32-2.99-.32,0,0,3.09,7.88,6.45,8.21s11.25,1.64,11.25,1.64Z"/>
    <path class="cls-9" d="m100.19,167.54l-.26-1.76-.09-1.14,1.7.11h1.79s.02-2.22.02-2.22l.06-1.15,2.62.02s4.54,7.99,3.24,8.94c-1.9,1.39-9.08-2.81-9.08-2.81Z"/>
    <path class="cls-18" d="m103.92,153.62c-3.29,6.84-13.52,11.87-13.52,11.87,0,0-33.71-34.78-37.84-41.99-.26-.46-.41-.81-.41-1.03-.08-3.64-2.89-12.23-1.31-12.81,1.38-.51,10.06,1.21,13.92,2.97.55.25,1,.51,1.32.75,2.55,1.98,37.84,40.23,37.84,40.23Z"/>
    <polyline class="cls-7" points="83.28 158.14 81.8 173.63 87.63 169.49 87.15 167.23 88.78 167.96 89.23 164.32"/>
    <polyline class="cls-7" points="96.91 146.05 111.14 145.16 107.37 150.45 105.25 149.92 105.96 151.48 102.14 151.8"/>
    <path class="cls-18" d="m91.52,164.89c2.78.97,5.32,1.6,5.32,1.6l4.15-4.1,3.56-5.28-.02-1.65-1.03-1.04"/>
    <polygon class="cls-18" points="62.36 127.74 69.43 131.66 70.64 130.71 68.02 122.97 62.81 120.62 60.15 122.23 62.36 127.74"/>
    <path class="cls-4" d="m63.21,124.28s3.54,5.11,4.17,4.56-.84-3.99-.84-3.99l-3.33-.57Z"/>
    <line class="cls-18" x1="69.95" y1="132.24" x2="71.08" y2="131.3"/>
    <line class="cls-18" x1="71.48" y1="134.13" x2="72.66" y2="132.96"/>
    <line class="cls-18" x1="73.49" y1="136.53" x2="74.72" y2="135.31"/>
    <line class="cls-13" x1="75.7" y1="139.07" x2="77.2" y2="137.81"/>
    <path class="cls-18" d="m52.3,122.54c0,.09,9.83-10.19,13.18-9.55"/>
    <path class="cls-19" d="m97.59,173.67c.43.4,7.92,7.83,7.92,7.83"/>
    <path class="cls-19" d="m92.95,173.06c.43.4,7.92,7.83,7.92,7.83"/>
    <path class="cls-19" d="m116.7,156.88c.43.4,7.92,7.83,7.92,7.83"/>
    <path class="cls-19" d="m112.06,156.28c.43.4,7.92,7.83,7.92,7.83"/>
    <path class="cls-19" d="m87.64,123.34c.43.4,7.92,7.83,7.92,7.83"/>
    <path class="cls-19" d="m83,122.73c.43.4,7.92,7.83,7.92,7.83"/>
    <path class="cls-19" d="m58.51,148.18c.43.4,7.92,7.83,7.92,7.83"/>
    <path class="cls-19" d="m53.87,147.57c.43.4,7.92,7.83,7.92,7.83"/>
  </g>
  <g id="Pintura">
    <path class="cls-27" d="m196.76,291.86c.02-.27.39-1.63.39-1.63l3.07-2.95,4.15-3.85,2.17-1.37,3.89,1.31,7.51,2.96,9.06,2.85,5.77,2.1,9.64,2.76-2.58,1.74-9.27,6.24-20.97,13.96-12.82-24.12Z"/>
    <path class="cls-31" d="m226.09,240.98l5.43.55s5.72-.06,6.02,0,6.92-1.18,6.92-1.18l4.66-.58,2.33-.65s-.56-2.74-.6-2.89-.77-4.57-.77-4.57c0,0-1.15-2.7-1.2-2.85s-.95-1.82-.95-1.82l-.89,1.48-1.49.9s-2.45.27-2.54.27-2.32-.27-2.32-.27l-.02-1.34s1.5-7.62,1.52-7.72,1.04-7.79,1.04-7.79l.7-5.43-.41-2.91-2.27-5.53-.66-1.66-2.26-3.44-2.63-1.13-2.25-2.57-3.89-5.18-2.2-3.05-4.98-4.59s-1.87-.84-1.93-.88-1.14-.41-1.14-.41l-2.2.82-1.51.66-2.58-3.86-3.57-4.38-5.18-4.81-2.33-1.23-4.2.21-1.56.06-1.71-1.18-5.25-2.69-8.91-3.91-9.23-3.02-4,.19-3.21,1.13s-5.8-.75-5.88-.74-6.79-.13-6.79-.13l-5.63,1.04-6.17,2.3-4.22,2.24-2.31,3.53-1.77,5.28s-1.69,6.81-1.71,6.89-1.33,2.69-1.33,2.69l-3.03,3.14-3.75,6.47-1.64,6.09-.78,8.98,2.99-.57s2.08,1.04,2.14,1.08,5.72,1.85,5.72,1.85l6.96,1.65,5.78.64,3.77.27,3.39-1.01s4.44-1.87,4.48-1.88,6.04-1.35,6.04-1.35c0,0,4.56-.72,4.6-.73s3.62-.32,3.62-.32c0,0,2.23.62,2.36.66s2.88.64,2.92.65,3.56.52,3.56.52l1.88.27,2.89,2.02,3.19,3.43,2.89,4.01,1.9,2.51,2.35,4.04s3.19,3.66,3.25,3.69,2.9,2.95,2.9,2.95l3.18,2.67,3.11,2.28,2.69,2.19,3.99,2.23,5.2,2.6,5.47,2.09,4.01,1.07"/>
    <path class="cls-28" d="m240.23,293.5l7.09.88,10.97-2.08,15.08-4.67,11.58-6.65-12.11-11.4-5.97-4.99-4.4-3.47-4.01-3.36-5.63-3.65-2.07-.98-2.51-.77.47-1.86.93-4.54,1.69-4.98.28-1.66-2.8.21-5.94,1.16-9.76.65-7.34-.45-3.77-.93-4.84-1.96-5.21-2.74-5.7-3.56-4.78-3.65-4.7-4.28-3.45-4.32-4.89-6.65-3.11-4.34-3.75-3.91-2.87-1.92s-3.14-.15-3.22-.16-3.12-.39-3.12-.39l-3.64-1.01-6.86.34-5.92,1.63-6.99,2.1-4.24.99-5.55-.69-6.35-1.01-6.72-2.13-2.46-1.23-3.71.07-2.7,1.31-2.42,3.52-3.24,5.03-2.67,4.51-3.21,6.86-1.82,5.16-1.73,4.94-.47,6.23.93,3.68,1.84,3.46,3.85,6.58,3.8,5.11,4.35,5.19,4.76,5.16,3.27,3.1,3.22,3.15,1.47,3.33,1.56,1.88s5,1.28,5.09,1.3,4.75.7,4.82.71,7.41.32,7.53.32,4.05,0,4.05,0l3.49-3.15-.44,1.95s-.34,1.36-.17,1.37,3.84.21,3.84.21l4.22-.04,9.24-.93,8.1-.69,6.15-.79,3.32-.39,4.36-.5,2.13.23s3.57,1.6,3.68,1.55c1.12-.55,7.25,2.03,7.25,2.03l8.08,3.18,3.24.64s2.3.88,2.47.83,2,.98,2.13,1.08,3.44.8,3.44.8l4.21,1.42,9.28,3.02Z"/>
    <path class="cls-1" d="m127.3,255.5s.9-.5.9-.5l2.03-.97,1.86-.91.76-.6,1.61-1.14,1.49-.6,1.32-.04,1.47.12s1.59.27,1.62.27,1.32-.12,1.32-.12c0,0,1.2-.25,1.22-.26s.81-.09.9-.08,1.06.24,1.06.24l1.39.58,1.51.91,1.9,1.13,2.17,1.28.77.39,1.33.81s.23.88.25.88-.57.74-.57.74l-1.2.97-1.87,1.34-1.57,1.05-1.96.65-3.26.44-3.31-.17-3.47-.48-2.63-.45-3.17-1.04-2.16-1.5-.91-1.29-.81-1.65Z"/>
    <path class="cls-2" d="m129.21,255.61l1.38-.43,2.39-.79s3.03-.53,3.07-.54,2.46-.33,2.55-.33,2.28.18,2.28.18l1.77-.09s1.57.32,1.61.33,2.33.62,2.33.62l1.93.55,2.47,1.05,1,.51s-.3.35-.33.36-2.11,1.02-2.11,1.02l-.92.4-1.64.36-1.2.44-1.63.12-3.29.05s-1.14-.09-1.31-.1-2.69-.41-2.69-.41l-3.28-.87-1.81-.71-2.66-1.67"/>
    <path class="cls-14" d="m206.02,282.06s-66.87,58.29-60.02,97.67"/>
    <path class="cls-10" d="m330.33,330.92s-40.67-49.71-46.06-49.79"/>
    <polygon class="cls-27" points="243.52 293.91 246.38 295.78 254.19 299.15 260.52 302.04 267.22 305.1 276.74 309.32 281.57 298.29 285.9 288.84 288.31 283.73 285.14 281.61 280.03 283.29 278.99 284.34 272.79 287.37 266.65 290.15 260.07 291.74 252.41 293.45 243.52 293.91"/>
    <polygon class="cls-1" points="232.88 300.94 236.46 306.99 246.76 306.61 248.78 306.34 254.51 299.69 250.71 297.84 242.93 294.21 232.88 300.94"/>
    <polygon class="cls-23" points="210.1 315.98 215.25 326.29 221.01 337.47 225.3 344.97 231.52 356.5 237.63 367.85 237.63 352.1 237.12 333.79 236.79 315.66 236.63 306.41 232.78 300.6 215.73 312.38 210.1 315.98"/>
    <polygon class="cls-23" points="251.32 349.51 252.13 364.32 254.47 359.71 259.78 346.78 261.76 343.4 267.75 329.99 276.74 309.32 269.96 306.35 254.51 299.29 252.16 302.99 248.83 306.87 250.13 322.65 251.32 349.51"/>
    <polygon class="cls-1" points="237.75 355.26 237.75 368.89 239.49 371.3 241.46 375.9 244.05 379.77 245.06 380.77 246.35 378.41 249.32 371.23 252.33 363.92 252.16 360.67 251.15 345.67 249.81 322.07 249.19 306.12 244.2 306.41 236.46 306.99 236.92 310.13 236.76 321.8 237.15 335.3 237.75 355.26"/>
  </g>
  <g id="Dibujo">
    <path class="cls-8" d="m123.54,259.91c-.92,4,5.24,13.96,6.47,18s22.69,3.57,22.69,3.57l3.49-3.15s-.1,1.08-.82,3.15,39.63-3.15,39.63-3.15l44.3,14.96s16.91,4.7,45.47-12.13c0,0-19.94-21.52-36.56-28.73l3.9-13.45s-13.38,2.53-21.7,2.12-28.03-8.11-39.63-25.77c-11.6-17.66-12.32-11.5-19.4-13.96s-18.58,2.77-23.72,4.21-19.51-2.26-23.2-4.31-7.29,1.44-7.29,1.44c0,0-1.26,1.8-3.06,4.69-3.87,6.24-10.25,17.57-11.93,27.03-2.46,13.86,26.4,40.03,26.4,40.03"/>
    <path class="cls-8" d="m117.74,237.29s-9.65,7.49,0,18.58"/>
    <path class="cls-8" d="m166.8,240.06s7.29,7.6,2.26,13.76"/>
    <path class="cls-8" d="m118.87,201.49s.72-5.48,1.03-10.1,5.85-12.83,8.32-14.89,2.46-17.15,9.24-19.51,12.94-6.16,26.8-3.18c0,0,1.95-1.54,5.95-1.57s25.26,9.48,26.08,11.12c0,0,4.88-1.39,7.19.21s11.96,11.14,11.96,13.81c0,0,2.77-2.16,4.67-1.49s8.16,4.88,12.17,13.09c0,0,3.13,3.75,5.24,4.11s6.83,10.08,6.42,14.8-2.81,20.33-3.56,20.94,6.09,1.64,7.12-1.44,3.97,11.64,3.97,11.64"/>
    <path class="cls-17" d="m121.3,226.23c-.19-.04,5.2-6.13,13.14-.44,0,0-5.54,2.12-13.14.44Z"/>
    <path class="cls-3" d="m149.42,226.23c-.19-.04,5.2-6.13,13.14-.44,0,0-5.54,2.12-13.14.44Z"/>
    <path class="cls-12" d="m116.25,219.93c.15-.15,15.71-6.72,22.13-.87,0,0-7.44-9.03-14.27-5.7-6.83,3.34-7.85,6.57-7.85,6.57Z"/>
    <path class="cls-12" d="m168.82,219.73s-2.46-6.21-22.59-.98c0,0,4.16-5.49,11.29-5.39,7.14.1,11.29,6.37,11.29,6.37Z"/>
    <path d="m117.95,262.41c.16,0,.16-.25,0-.25s-.16.25,0,.25h0Z"/>
    <path d="m140.92,225.84c.25,4.63-1.77,9.19-5.47,12.01-.98.75-2.05,1.38-3.09,2.04-.51.32-1.47.72-1.58,1.41s.66,1.59.99,2.14c.64,1.05,1.34,2.07,2.09,3.04.61.78,1.25,1.54,1.92,2.26.5.54,1.07,1.41,1.91,1.25.92-.17,1.93-.97,2.81-1.32,1.14-.45,2.32-.79,3.53-1.02s2.5-.34,3.76-.32c.97.01,1.97.2,2.93.04,1.71-.28,2.04-1.58,1.76-3.1-.26-1.41-.57-2.82-.86-4.22-.17-.81-.4-1.21-1.21-1.47-2.43-.78-5.29-.5-7.68.24-.46.14-.26.87.2.72,2.1-.65,4.29-.82,6.46-.42.57.11,1.15.23,1.43.78.2.38.22,1.05.3,1.46.21,1.03.46,2.07.64,3.11.13.77.11,1.65-.69,2.03-.41.2-.96.18-1.41.17-.89-.02-1.78-.12-2.68-.09-1.8.05-3.6.35-5.32.89-.81.25-1.6.56-2.38.91-.37.17-.72.4-1.1.55-.78.31-1.04.14-1.59-.43-1.4-1.46-2.65-3.05-3.74-4.75-.26-.4-.51-.81-.75-1.23-.35-.61-.74-.9-.07-1.53s1.69-1.06,2.47-1.57c1.44-.94,2.77-2.01,3.86-3.35,2.33-2.87,3.51-6.54,3.31-10.23-.03-.48-.78-.48-.75,0h0Z"/>
    <path d="m148.32,247.14c-.05-.38-.51-.55-.88-.64-1.06-.26-2.12-.51-3.18-.77-1.59-.38-3.3-.76-4.81-.15-.22.09-.46.24-.47.48-.01.36.47.48.83.49,2.71.02,5.41.04,8.12.06"/>
    <path class="cls-21" d="m128.81,255.79c.65-.26,11.33-5.66,23.61,1.11,0,0-16.38,2.81-23.56-1.2"/>
    <path class="cls-21" d="m129.87,256.19s10.2,6.7,22.23.76"/>
    <line class="cls-8" x1="132.02" y1="254.59" x2="131.85" y2="256.88"/>
    <line class="cls-8" x1="134.16" y1="254.19" x2="134.16" y2="257.22"/>
    <line class="cls-8" x1="137.12" y1="257.72" x2="136.98" y2="253.85"/>
    <line class="cls-8" x1="140.98" y1="253.61" x2="140.78" y2="257.72"/>
    <line class="cls-8" x1="144.72" y1="254.19" x2="144.37" y2="257.6"/>
    <line class="cls-8" x1="147.26" y1="254.82" x2="147.26" y2="257.54"/>
    <path d="m127.23,255.6c1.98-.95,4.28-1.72,6-3.11,1.22-1,2.15-1.65,3.78-1.66,1.08,0,2.13.27,3.2.37,1.21.11,2.2-.4,3.38-.41,1.44-.02,2.83.96,4.02,1.67,1.09.64,2.18,1.29,3.27,1.93.54.32,1.09.64,1.63.97.27.16.54.32.82.48.44.11.59.4.44.87.04.86-.39.97-1.02,1.47-.58.46-1.16.91-1.76,1.35-1.07.78-2.16,1.48-3.44,1.84-2.46.69-5.2.58-7.72.31-4.77-.51-10.51-1.09-12.42-6.24-.06-.15-.3-.08-.24.07.56,1.5,1.47,2.81,2.75,3.79,1.66,1.28,3.67,1.63,5.68,2,4.08.75,9.09,1.66,13.06-.04,1.03-.44,1.93-1.1,2.82-1.77s1.87-1.3,2.63-2.08c1.1-1.13-.61-1.74-1.46-2.25-2.14-1.27-4.25-2.66-6.47-3.79-.8-.41-1.67-.82-2.58-.81-1.16.01-2.19.52-3.38.41-2.11-.2-4.28-.86-6.16.51-.94.68-1.72,1.43-2.79,1.95-1.38.67-2.77,1.32-4.16,1.99-.15.07-.02.28.13.22h0Z"/>
    <path d="m140.9,190.76c-2.41-11.12,3.87-22.41,14.6-26.2.3-.11.17-.59-.13-.48-10.99,3.88-17.42,15.41-14.95,26.81.07.31.55.18.48-.13h0Z"/>
    <path d="m146.8,180.76c3.84-5.62,5.29-15.05,13-16.86.31-.07.18-.56-.13-.48-7.89,1.85-9.36,11.33-13.3,17.09-.18.27.25.52.43.25h0Z"/>
    <path d="m153.69,180.19l4.06-7.37c.6-1.08,1.16-2.2,1.81-3.25.6-.96,1.36-1.86,2.53-2.05.32-.05.18-.53-.13-.48-2.27.37-3.3,3.1-4.27,4.86l-4.43,8.04c-.16.28.28.53.43.25h0Z"/>
    <path d="m225.05,238.33v-4.08c.02-1.16-.24-2.74.48-3.74h-.22c1.01,1.69,1.17,3.72,2.22,5.39.06.09.19.07.23-.03.56-1.61,1.12-3.22,1.68-4.84l-.23.03c.39.63.76,1.28,1.18,1.89.18.26.44.57.8.51.41-.07.63-.57.81-.87.4-.64.79-1.29,1.19-1.93l-.23-.03c.43,1.25.83,2.52,1.3,3.76.25.67.64,1.37,1.42,1.43.16.01.16-.24,0-.25-.98-.06-1.25-1.44-1.51-2.18-.32-.94-.65-1.88-.97-2.82-.03-.1-.17-.12-.23-.03-.23.38-.47.76-.7,1.14-.2.32-.42.88-.7,1.14-.07.19-.23.24-.46.15-.28.13-.46.06-.55-.21-.12-.18-.23-.37-.34-.55-.27-.43-.53-.85-.8-1.28-.06-.09-.19-.07-.23.03-.56,1.61-1.12,3.22-1.68,4.84l.23-.03c-1.05-1.66-1.21-3.7-2.22-5.39-.05-.09-.16-.07-.22,0-.69.96-.5,2.32-.5,3.44v4.51c-.02.16.23.16.24,0h0Z"/>
    <path d="m129.7,192.1c-1.23-1.57-.36-3.91.23-5.57.56-1.58,1.3-3.09,2.13-4.55,1.59-2.79,3.52-5.37,5.35-8s3.45-5.13,4.64-7.98c.61-1.47.89-3.02,1.44-4.51.78-2.13,3.78-2.54,5.72-3.2.3-.1.17-.59-.13-.48-1.16.4-2.33.77-3.48,1.19-.68.24-1.34.48-1.84,1.02-1.07,1.15-1.16,3.06-1.66,4.49-1.24,3.57-3.38,6.75-5.53,9.83s-4.33,6-5.95,9.32c-1.15,2.36-3.14,6.38-1.25,8.79.2.25.55-.1.35-.35h0Z"/>
    <path d="m134,190.72c1.04-3.24,2.07-6.49,3.13-9.72s2.02-6.37,3.85-9.07c1.72-2.54,4.64-3.88,6.67-6.15,2.21-2.46,4.27-4.48,7.66-5.05.32-.05.18-.54-.13-.48-3.03.51-5.22,2.16-7.21,4.41-1.16,1.32-2.35,2.47-3.77,3.52-1.14.84-2.26,1.68-3.14,2.8-2.03,2.56-3.09,5.96-4.12,9.01-1.19,3.52-2.29,7.06-3.43,10.6-.1.31.38.44.48.13h0Z"/>
    <path d="m126.57,186.39c1.69-2.98,3.38-5.96,5.06-8.94,1.44-2.55,2.8-5.08,3.77-7.84s1.85-6.01,3.91-8.34c1.18-1.33,2.65-1.78,4.27-2.35,1.44-.51,2.84-1.14,4.18-1.86.28-.15.03-.58-.25-.43-1.57.84-3.2,1.52-4.89,2.09-1.28.43-2.41.92-3.37,1.89-1.94,1.97-2.9,4.73-3.78,7.28-2.23,6.5-5.95,12.3-9.33,18.26-.16.28.27.53.43.25h0Z"/>
    <path d="m165.95,191.18c3.47-3.19,7.25-6.01,11.31-8.4,1.98-1.16,4.01-2.22,6.1-3.17,1.15-.52,2.32-1.03,3.5-1.47,1.69-.64,2.94-.61,4.58.16,4.16,1.94,8.65,2.8,13,4.16,4.58,1.43,8.63,3.75,12.24,6.93,1.88,1.65,3.61,3.47,5.24,5.36,1.54,1.79,2.91,3.81,5.06,4.89.29.14.54-.29.25-.43-2.17-1.09-3.55-3.18-5.1-4.97s-3.18-3.5-4.95-5.07c-3.4-3.02-7.25-5.4-11.57-6.86-2.36-.8-4.79-1.39-7.18-2.05-2.53-.71-4.91-1.61-7.32-2.66-2.23-.96-4.07-.11-6.19.78s-4.22,1.9-6.25,3.02c-4.73,2.6-9.12,5.78-13.09,9.43-.24.22.12.57.35.35h0Z"/>
    <path d="m173.64,194.16c3.33-2.47,7.07-4.35,11.07-5.48,2.04-.58,4.21-1.07,6.34-1.02,2.44.06,4.17,1.16,6.13,2.47,1.58,1.06,3.28,1.85,5.13,2.27s3.71.28,5.64.26c2.37-.02,3.72,1.53,5.67,2.57,1.59.84,3.3,1.33,5.08,1.54.32.04.32-.46,0-.5-2.34-.27-4.47-1.11-6.4-2.45-1.49-1.04-2.69-1.69-4.56-1.65-2.35.05-4.5.11-6.76-.66-2.09-.71-3.7-2.05-5.58-3.14-3.39-1.97-7.46-1.14-11.03-.11-3.96,1.14-7.67,3.01-10.98,5.47-.26.19,0,.62.25.43h0Z"/>
    <path d="m182.29,199.81c5.28-3.48,12.63-2.13,18.48-1.2,3.06.48,6.15.92,9.12,1.82,2.8.85,5.43,2.35,8.42,2.33.32,0,.32-.5,0-.5-3.3.02-6.27-1.81-9.4-2.63s-6.59-1.31-9.9-1.79c-5.48-.8-12.07-1.69-16.97,1.54-.27.18-.02.61.25.43h0Z"/>
    <path d="m125.51,223.55s-1.51,2.19.02,3,1.72.25,1.72.25h1.19s1.44-1.51.54-3.26c0,0-2.85-.41-3.36-.03"/>
    <path d="m154.44,223.55s-1.51,2.19.02,3,1.72.25,1.72.25h1.19s1.44-1.51.54-3.26c0,0-2.85-.41-3.36-.03"/>
    <path class="cls-32" d="m178.07,386.33s2.93-34.14,8.21-40.2"/>
    <polyline class="cls-20" points="245.71 381.6 206.63 358.29 210.74 331.34 193.33 319.55 196.95 292.31 210.64 317.73 216.63 328.86 244.84 381.24 288.02 284.63 295.07 311.34 277.26 326.4 285.87 352.62 243.35 382.95"/>
    <polyline class="cls-8" points="209.92 315.98 231.98 301.13 242.72 293.91 276.74 309.45"/>
    <polyline class="cls-8" points="232.88 300.53 236.63 306.87 248.96 306.41 254.68 299.37"/>
    <line class="cls-8" x1="236.63" y1="306.87" x2="237.75" y2="368.07"/>
    <line class="cls-8" x1="248.96" y1="306.41" x2="252.16" y2="364.88"/>
  </g>
  <g id="Estrellas">
    <g>
      <path class="cls-29" d="m70.73,241.26c-1.87,1.25-3.82,2.35-6.02,2.82.85,1.53,2.95,1.71,4.69,1.56.6-.05,1.31-.07,1.68.4.13.17.2.38.26.58,1.35,4.33,2.42,8.75,3.21,13.22.03.19.08.4.23.51.37.26.79-.25.93-.69.9-2.87.57-5.95.4-8.96-.08-1.38-.12-2.75-.13-4.13,0-1.05.09-2.27.96-2.86.39-.26.87-.35,1.32-.46,1.3-.32,2.54-.92,3.6-1.75-1.3-.31-2.51-.96-3.49-1.87-1.36-1.27-2.22-2.98-2.91-4.7-2.41-6.02-3.11-12.6-5.28-18.71-.55.27-.6,1.02-.57,1.63.38,7.79.75,15.59,1.13,23.38"/>
      <path d="m70.6,241.04c-1.86,1.23-3.78,2.29-5.96,2.8-.15.04-.23.23-.15.37.73,1.14,1.91,1.58,3.22,1.7.74.07,1.59-.17,2.31-.03,1.42.27,1.7,2.85,2.01,3.98.59,2.11,1.11,4.24,1.56,6.38.25,1.18.32,2.55.72,3.69.12.35.2.7.63.76,1.22.15,1.39-2.46,1.48-3.12.25-1.97.12-3.96,0-5.93-.08-1.22-.14-2.44-.17-3.66-.02-.97-.18-2.15.17-3.08.49-1.33,1.93-1.3,3.06-1.73.91-.35,1.73-.83,2.5-1.41.16-.12.17-.4-.06-.46-5.04-1.35-6.62-6.86-7.85-11.33s-2.08-9.28-3.65-13.78c-.05-.14-.23-.25-.37-.15-1.14.83-.65,2.65-.6,3.84.12,2.4.23,4.81.35,7.21.23,4.73.45,9.45.68,14.18.02.32.52.32.5,0-.2-4.15-.4-8.29-.6-12.44-.1-1.99-.19-3.98-.29-5.97-.05-1-.1-1.99-.14-2.99-.04-.84-.47-2.81.35-3.41l-.37-.15c1.77,5.07,2.58,10.39,4.16,15.51,1.3,4.18,3.05,8.7,7.69,9.95l-.06-.46c-.85.64-1.76,1.15-2.76,1.5-.7.24-1.53.28-2.16.71-1.13.77-1.09,2.33-1.08,3.53.02,1.98.16,3.96.27,5.93.06,1.05.09,2.11.04,3.17-.03.65-.09,1.3-.2,1.94-.06.33-.18,1.56-.45,1.73-.76.47-.69-.58-.76-.95-.11-.62-.23-1.23-.36-1.84-.2-1-.42-1.99-.65-2.98-.48-2.06-1.02-4.1-1.62-6.13-.36-1.23-.5-2.45-1.98-2.54-1.82-.11-3.91.44-5.09-1.42l-.15.37c2.22-.52,4.19-1.6,6.08-2.85.27-.18.02-.61-.25-.43h0Z"/>
    </g>
    <g>
      <path class="cls-29" d="m319.73,139.69c-1.87,1.25-3.82,2.35-6.02,2.82.85,1.53,2.95,1.71,4.69,1.56.6-.05,1.31-.07,1.68.4.13.17.2.38.26.58,1.35,4.33,2.42,8.75,3.21,13.22.03.19.08.4.23.51.37.26.79-.25.93-.69.9-2.87.57-5.95.4-8.96-.08-1.38-.12-2.75-.13-4.13,0-1.05.09-2.27.96-2.86.39-.26.87-.35,1.32-.46,1.3-.32,2.54-.92,3.6-1.75-1.3-.31-2.51-.96-3.49-1.87-1.36-1.27-2.22-2.98-2.91-4.7-2.41-6.02-3.11-12.6-5.28-18.71-.55.27-.6,1.02-.57,1.63.38,7.79.75,15.59,1.13,23.38"/>
      <path d="m319.6,139.48c-1.86,1.23-3.78,2.29-5.96,2.8-.15.04-.23.23-.15.37.73,1.14,1.91,1.58,3.22,1.7.74.07,1.59-.17,2.31-.03,1.42.27,1.7,2.85,2.01,3.98.59,2.11,1.11,4.24,1.56,6.38.25,1.18.32,2.55.72,3.69.12.35.2.7.63.76,1.22.15,1.39-2.46,1.48-3.12.25-1.97.12-3.96,0-5.93-.08-1.22-.14-2.44-.17-3.66-.02-.97-.18-2.15.17-3.08.49-1.33,1.93-1.3,3.06-1.73.91-.35,1.73-.83,2.5-1.41.16-.12.17-.4-.06-.46-5.04-1.35-6.62-6.86-7.85-11.33s-2.08-9.28-3.65-13.78c-.05-.14-.23-.25-.37-.15-1.14.83-.65,2.65-.6,3.84.12,2.4.23,4.81.35,7.21.23,4.73.45,9.45.68,14.18.02.32.52.32.5,0-.2-4.15-.4-8.29-.6-12.44-.1-1.99-.19-3.98-.29-5.97-.05-1-.1-1.99-.14-2.99-.04-.84-.47-2.81.35-3.41l-.37-.15c1.77,5.07,2.58,10.39,4.16,15.51,1.3,4.18,3.05,8.7,7.69,9.95l-.06-.46c-.85.64-1.76,1.15-2.76,1.5-.7.24-1.53.28-2.16.71-1.13.77-1.09,2.33-1.08,3.53.02,1.98.16,3.96.27,5.93.06,1.05.09,2.11.04,3.17-.03.65-.09,1.3-.2,1.94-.06.33-.18,1.56-.45,1.73-.76.47-.69-.58-.76-.95-.11-.62-.23-1.23-.36-1.84-.2-1-.42-1.99-.65-2.98-.48-2.06-1.02-4.1-1.62-6.13-.36-1.23-.5-2.45-1.98-2.54-1.82-.11-3.91.44-5.09-1.42l-.15.37c2.22-.52,4.19-1.6,6.08-2.85.27-.18.02-.61-.25-.43h0Z"/>
    </g>
    <g>
      <path class="cls-29" d="m113.04,328.61c-1.87,1.25-3.82,2.35-6.02,2.82.85,1.53,2.95,1.71,4.69,1.56.6-.05,1.31-.07,1.68.4.13.17.2.38.26.58,1.35,4.33,2.42,8.75,3.21,13.22.03.19.08.4.23.51.37.26.79-.25.93-.69.9-2.87.57-5.95.4-8.96-.08-1.38-.12-2.75-.13-4.13,0-1.05.09-2.27.96-2.86.39-.26.87-.35,1.32-.46,1.3-.32,2.54-.92,3.6-1.75-1.3-.31-2.51-.96-3.49-1.87-1.36-1.27-2.22-2.98-2.91-4.7-2.41-6.02-3.11-12.6-5.28-18.71-.55.27-.6,1.02-.57,1.63.38,7.79.75,15.59,1.13,23.38"/>
      <path d="m112.92,328.4c-1.86,1.23-3.78,2.29-5.96,2.8-.15.04-.23.23-.15.37.73,1.14,1.91,1.58,3.22,1.7.74.07,1.59-.17,2.31-.03,1.42.27,1.7,2.85,2.01,3.98.59,2.11,1.11,4.24,1.56,6.38.25,1.18.32,2.55.72,3.69.12.35.2.7.63.76,1.22.15,1.39-2.46,1.48-3.12.25-1.97.12-3.96,0-5.93-.08-1.22-.14-2.44-.17-3.66-.02-.97-.18-2.15.17-3.08.49-1.33,1.93-1.3,3.06-1.73.91-.35,1.73-.83,2.5-1.41.16-.12.17-.4-.06-.46-5.04-1.35-6.62-6.86-7.85-11.33s-2.08-9.28-3.65-13.78c-.05-.14-.23-.25-.37-.15-1.14.83-.65,2.65-.6,3.84.12,2.4.23,4.81.35,7.21.23,4.73.45,9.45.68,14.18.02.32.52.32.5,0-.2-4.15-.4-8.29-.6-12.44-.1-1.99-.19-3.98-.29-5.97-.05-1-.1-1.99-.14-2.99-.04-.84-.47-2.81.35-3.41l-.37-.15c1.77,5.07,2.58,10.39,4.16,15.51,1.3,4.18,3.05,8.7,7.69,9.95l-.06-.46c-.85.64-1.76,1.15-2.76,1.5-.7.24-1.53.28-2.16.71-1.13.77-1.09,2.33-1.08,3.53.02,1.98.16,3.96.27,5.93.06,1.05.09,2.11.04,3.17-.03.65-.09,1.3-.2,1.94-.06.33-.18,1.56-.45,1.73-.76.47-.69-.58-.76-.95-.11-.62-.23-1.23-.36-1.84-.2-1-.42-1.99-.65-2.98-.48-2.06-1.02-4.1-1.62-6.13-.36-1.23-.5-2.45-1.98-2.54-1.82-.11-3.91.44-5.09-1.42l-.15.37c2.22-.52,4.19-1.6,6.08-2.85.27-.18.02-.61-.25-.43h0Z"/>
    </g>
    <g>
      <path class="cls-29" d="m355.97,212.35c-1.87,1.25-3.82,2.35-6.02,2.82.85,1.53,2.95,1.71,4.69,1.56.6-.05,1.31-.07,1.68.4.13.17.2.38.26.58,1.35,4.33,2.42,8.75,3.21,13.22.03.19.08.4.23.51.37.26.79-.25.93-.69.9-2.87.57-5.95.4-8.96-.08-1.38-.12-2.75-.13-4.13,0-1.05.09-2.27.96-2.86.39-.26.87-.35,1.32-.46,1.3-.32,2.54-.92,3.6-1.75-1.3-.31-2.51-.96-3.49-1.87-1.36-1.27-2.22-2.98-2.91-4.7-2.41-6.02-3.11-12.6-5.28-18.71-.55.27-.6,1.02-.57,1.63.38,7.79.75,15.59,1.13,23.38"/>
      <path d="m355.84,212.13c-1.86,1.23-3.78,2.29-5.96,2.8-.15.04-.23.23-.15.37.73,1.14,1.91,1.58,3.22,1.7.74.07,1.59-.17,2.31-.03,1.42.27,1.7,2.85,2.01,3.98.59,2.11,1.11,4.24,1.56,6.38.25,1.18.32,2.55.72,3.69.12.35.2.7.63.76,1.22.15,1.39-2.46,1.48-3.12.25-1.97.12-3.96,0-5.93-.08-1.22-.14-2.44-.17-3.66-.02-.97-.18-2.15.17-3.08.49-1.33,1.93-1.3,3.06-1.73.91-.35,1.73-.83,2.5-1.41.16-.12.17-.4-.06-.46-5.04-1.35-6.62-6.86-7.85-11.33s-2.08-9.28-3.65-13.78c-.05-.14-.23-.25-.37-.15-1.14.83-.65,2.65-.6,3.84.12,2.4.23,4.81.35,7.21.23,4.73.45,9.45.68,14.18.02.32.52.32.5,0-.2-4.15-.4-8.29-.6-12.44-.1-1.99-.19-3.98-.29-5.97-.05-1-.1-1.99-.14-2.99-.04-.84-.47-2.81.35-3.41l-.37-.15c1.77,5.07,2.58,10.39,4.16,15.51,1.3,4.18,3.05,8.7,7.69,9.95l-.06-.46c-.85.64-1.76,1.15-2.76,1.5-.7.24-1.53.28-2.16.71-1.13.77-1.09,2.33-1.08,3.53.02,1.98.16,3.96.27,5.93.06,1.05.09,2.11.04,3.17-.03.65-.09,1.3-.2,1.94-.06.33-.18,1.56-.45,1.73-.76.47-.69-.58-.76-.95-.11-.62-.23-1.23-.36-1.84-.2-1-.42-1.99-.65-2.98-.48-2.06-1.02-4.1-1.62-6.13-.36-1.23-.5-2.45-1.98-2.54-1.82-.11-3.91.44-5.09-1.42l-.15.37c2.22-.52,4.19-1.6,6.08-2.85.27-.18.02-.61-.25-.43h0Z"/>
    </g>
  </g>
  <g id="SpiderMan">
    <text class="cls-5" transform="translate(111.68 121.6) rotate(-23.61) scale(.87 1)"><tspan x="0" y="0">S</tspan></text>
    <text class="cls-5" transform="translate(133.05 112.37) rotate(-16.98) scale(.87 1)"><tspan x="0" y="0">P</tspan></text>
    <text class="cls-5" transform="translate(156.41 105.49) rotate(-10.42) scale(.87 1)"><tspan x="0" y="0">E</tspan></text>
    <text class="cls-5" transform="translate(176.45 102.09) rotate(-5.24) scale(.87 1)"><tspan x="0" y="0">I</tspan></text>
    <text class="cls-5" transform="translate(188.83 100.79) rotate(.73) scale(.87 1)"><tspan x="0" y="0">S</tspan></text>
    <text class="cls-5" transform="translate(211.93 101.3) rotate(8.38) scale(.87 1)"><tspan x="0" y="0"> </tspan></text>
    <text class="cls-5" transform="translate(232.56 104.51) rotate(15.63) scale(.87 1)"><tspan x="0" y="0">E</tspan></text>
    <text class="cls-5" transform="translate(251.75 109.88) rotate(23.32) scale(.87 1)"><tspan x="0" y="0">X</tspan></text>
    <text class="cls-5" transform="translate(274.19 119.86) rotate(30.67) scale(.87 1)"><tspan x="0" y="0"> </tspan></text>
    <text class="cls-5" transform="translate(292.28 130.86) rotate(36.44) scale(.87 1)"><tspan x="0" y="0"> </tspan></text>
  </g>
</svg>